# xmcd
#
# Track frame offsets: 
#        150
#        17252
#        29432
#        44280
#        61225
#        73724
#        85846
#        113294
#        122898
#        140289
#        155617
#        174405
#        190978
#        212828
#        225532
#
# Disc length: 3091 seconds
#
# Revision: 0
# Processed by: cddbd v1.5.2PL0 Copyright (c) Steve Scherf et al.
# Submitted via: ExactAudioCopy v1.3
#
DISCID=c00c110f
DTITLE=Cathy Jean - Tear Me Apart
DYEAR=1996
DGENRE=Electric Blues
TTITLE0=Trouble No More
TTITLE1=Hello Little Boy
TTITLE2=Ain't That Lovin' You
TTITLE3=That's All Right
TTITLE4=Baby, Get Lost
TTITLE5=Rock This House
TTITLE6=One Good Man
TTITLE7=Mama, Talk To Your Daughter
TTITLE8=I'm A Man
TTITLE9=Who Do You Love
TTITLE10=Sweet Blood Call
TTITLE11=Rollin' And Tumblin'
TTITLE12=You The Kind Of Women 
TTITLE13=Do Nothin' 'Til You Hear From Me
TTITLE14=Hidden Track
EXTD=
EXTT0=
EXTT1=
EXTT2=
EXTT3=
EXTT4=
EXTT5=
EXTT6=
EXTT7=
EXTT8=
EXTT9=
EXTT10=
EXTT11=
EXTT12=
EXTT13=
EXTT14=
PLAYORDER=
